<?xml version="1.0" standalone="no"?>
<!DOCTYPE svg PUBLIC "-//W3C//DTD SVG 20010904//EN"
 "http://www.w3.org/TR/2001/REC-SVG-20010904/DTD/svg10.dtd">
<svg version="1.0" xmlns="http://www.w3.org/2000/svg"
 width="1250.000000pt" height="1250.000000pt" viewBox="0 0 1250.000000 1250.000000"
 preserveAspectRatio="xMidYMid meet">

<g transform="translate(0.000000,1250.000000) scale(0.100000,-0.100000)"
fill="#606060" stroke="none">
<path d="M267 12193 c-4 -3 -7 -1898 -7 -4210 l0 -4203 1874 0 c1870 0 2025 2
2306 36 141 16 356 50 413 65 l38 10 -887 895 -887 894 -363 0 -364 0 -2 378
c-2 207 -2 1251 0 2320 l2 1942 538 0 c734 0 965 -17 1266 -95 174 -44 274
-82 431 -160 174 -87 296 -176 435 -315 385 -384 570 -948 570 -1738 l0 -206
897 -898 c494 -494 900 -898 904 -898 11 0 94 236 143 406 151 531 215 1079
203 1739 -11 583 -80 1038 -228 1500 -191 600 -486 1085 -920 1511 -650 637
-1481 968 -2574 1024 -212 11 -3778 14 -3788 3z"/>
<path d="M9476 6930 l-1913 -1910 -1013 1016 c-556 558 -1014 1014 -1016 1012
-2 -3 -15 -44 -29 -93 -95 -326 -231 -573 -424 -766 -247 -246 -576 -397
-1026 -470 -71 -11 -142 -24 -157 -27 -25 -7 41 -75 1060 -1101 l1087 -1093
-1598 -1592 c-879 -875 -1598 -1594 -1597 -1598 0 -5 677 -8 1505 -8 l1505 0
2769 2748 2769 2747 1 1523 c1 837 -1 1522 -4 1522 -3 0 -866 -859 -1919
-1910z"/>
<path d="M8787 2298 l-757 -753 560 -575 c309 -316 582 -596 608 -622 l47 -46
1370 24 c754 13 1428 23 1498 24 l129 0 -1344 1350 c-738 742 -1346 1350
-1349 1350 -3 0 -346 -339 -762 -752z"/>
</g>
</svg>
