<?xml version="1.0" standalone="no"?><svg xmlns:xlink="http://www.w3.org/1999/xlink" xmlns="http://www.w3.org/2000/svg" viewBox="0 0 1000 545.4612549529728" preserveAspectRatio="xMaxYMax slice"><g transform="scale(1.1531950421838748)"><rect x="0" y="0" width="867.1666666666666" height="473" fill="#fcfcfc"/><g transform="translate(319.35,4.01) scale(3.5405) rotate(0)"><path fill-rule="evenodd" clip-rule="evenodd" d="M10 20C15.5228 20 20 15.5228 20 10C20 4.47715 15.5228 0 10 0C4.47715 0 0 4.47715 0 10C0 15.5228 4.47715 20 10 20ZM10 17C13.866 17 17 13.866 17 10C17 6.13401 13.866 3 10 3C6.13401 3 3 6.13401 3 10C3 13.866 6.13401 17 10 17Z" fill="#8eb3fe"/></g><g transform="translate(555.85,4.01) scale(3.5405) rotate(0)"><path fill-rule="evenodd" clip-rule="evenodd" d="M10 20C15.5228 20 20 15.5228 20 10C20 4.47715 15.5228 0 10 0C4.47715 0 0 4.47715 0 10C0 15.5228 4.47715 20 10 20ZM10 17C13.866 17 17 13.866 17 10C17 6.13401 13.866 3 10 3C6.13401 3 3 6.13401 3 10C3 13.866 6.13401 17 10 17Z" fill="#4d88ff"/></g><circle cx="670.0849999999999" cy="39.415" r="28.525" fill="#d2ecff"/><circle cx="39.415" cy="118.25500000000001" r="7.885" fill="#e4f3fe"/><circle cx="748.915" cy="118.255" r="21.645" fill="#f7fafc"/><circle cx="827.755" cy="118.255" r="14.765" fill="#7ba7fe"/><g transform="translate(394.17,157.67) scale(3.9415) rotate(0)"><path fill-rule="evenodd" clip-rule="evenodd" d="M10 20C15.5228 20 20 15.5228 20 10C20 4.47715 15.5228 0 10 0C4.47715 0 0 4.47715 0 10C0 15.5228 4.47715 20 10 20ZM10 17C13.866 17 17 13.866 17 10C17 6.13401 13.866 3 10 3C6.13401 3 3 6.13401 3 10C3 13.866 6.13401 17 10 17Z" fill="#99bafd"/></g><g transform="translate(31.53,268.03) scale(0.7885) rotate(0)"><path fill-rule="evenodd" clip-rule="evenodd" d="M10 20C15.5228 20 20 15.5228 20 10C20 4.47715 15.5228 0 10 0C4.47715 0 0 4.47715 0 10C0 15.5228 4.47715 20 10 20ZM10 17C13.866 17 17 13.866 17 10C17 6.13401 13.866 3 10 3C6.13401 3 3 6.13401 3 10C3 13.866 6.13401 17 10 17Z" fill="#5990fe"/></g><g transform="translate(175.44,254.27) scale(2.1645) rotate(0)"><path fill-rule="evenodd" clip-rule="evenodd" d="M10 20C15.5228 20 20 15.5228 20 10C20 4.47715 15.5228 0 10 0C4.47715 0 0 4.47715 0 10C0 15.5228 4.47715 20 10 20ZM10 17C13.866 17 17 13.866 17 10C17 6.13401 13.866 3 10 3C6.13401 3 3 6.13401 3 10C3 13.866 6.13401 17 10 17Z" fill="#dde8fc"/></g><circle cx="433.58500000000004" cy="275.915" r="39.415" fill="#bad0fd"/><circle cx="197.085" cy="354.755" r="21.645" fill="#e4f3fe"/><circle cx="354.755" cy="354.755" r="35.405" fill="#d2ecff"/><circle cx="748.915" cy="354.755" r="21.645" fill="#dff1fe"/><g transform="translate(473,394.17) scale(3.9415) rotate(0)"><path fill-rule="evenodd" clip-rule="evenodd" d="M10 20C15.5228 20 20 15.5228 20 10C20 4.47715 15.5228 0 10 0C4.47715 0 0 4.47715 0 10C0 15.5228 4.47715 20 10 20ZM10 17C13.866 17 17 13.866 17 10C17 6.13401 13.866 3 10 3C6.13401 3 3 6.13401 3 10C3 13.866 6.13401 17 10 17Z" fill="#5990fe"/></g></g></svg>