<?xml version="1.0" standalone="no"?><svg xmlns:xlink="http://www.w3.org/1999/xlink" xmlns="http://www.w3.org/2000/svg" viewBox="0 0 1000 545.4612549529728" preserveAspectRatio="xMaxYMax slice"><g transform="scale(1.1531950421838748)"><rect x="0" y="0" width="867.1666666666666" height="473" fill="#000000"/><circle cx="748.915" cy="39.415" r="21.645" fill="#7a8a96"/><g transform="translate(812.99,24.65) scale(1.4765000000000001) rotate(0)"><path fill-rule="evenodd" clip-rule="evenodd" d="M10 20C15.5228 20 20 15.5228 20 10C20 4.47715 15.5228 0 10 0C4.47715 0 0 4.47715 0 10C0 15.5228 4.47715 20 10 20ZM10 17C13.866 17 17 13.866 17 10C17 6.13401 13.866 3 10 3C6.13401 3 3 6.13401 3 10C3 13.866 6.13401 17 10 17Z" fill="#040a15"/></g><circle cx="197.085" cy="118.255" r="21.645" fill="#1f4799"/><circle cx="748.915" cy="118.255" r="21.645" fill="#bbd3e5"/><circle cx="197.085" cy="197.085" r="21.645" fill="#224fa9"/><g transform="translate(394.17,157.67) scale(3.9415) rotate(0)"><path fill-rule="evenodd" clip-rule="evenodd" d="M10 20C15.5228 20 20 15.5228 20 10C20 4.47715 15.5228 0 10 0C4.47715 0 0 4.47715 0 10C0 15.5228 4.47715 20 10 20ZM10 17C13.866 17 17 13.866 17 10C17 6.13401 13.866 3 10 3C6.13401 3 3 6.13401 3 10C3 13.866 6.13401 17 10 17Z" fill="#1a3d83"/></g><circle cx="591.255" cy="197.085" r="35.405" fill="#142e62"/><g transform="translate(727.27,175.44) scale(2.1645) rotate(0)"><path fill-rule="evenodd" clip-rule="evenodd" d="M10 20C15.5228 20 20 15.5228 20 10C20 4.47715 15.5228 0 10 0C4.47715 0 0 4.47715 0 10C0 15.5228 4.47715 20 10 20ZM10 17C13.866 17 17 13.866 17 10C17 6.13401 13.866 3 10 3C6.13401 3 3 6.13401 3 10C3 13.866 6.13401 17 10 17Z" fill="#224ea8"/></g><circle cx="827.755" cy="197.08499999999998" r="14.765" fill="#09162f"/><g transform="translate(394.17,236.5) scale(3.9415) rotate(0)"><path fill-rule="evenodd" clip-rule="evenodd" d="M10 20C15.5228 20 20 15.5228 20 10C20 4.47715 15.5228 0 10 0C4.47715 0 0 4.47715 0 10C0 15.5228 4.47715 20 10 20ZM10 17C13.866 17 17 13.866 17 10C17 6.13401 13.866 3 10 3C6.13401 3 3 6.13401 3 10C3 13.866 6.13401 17 10 17Z" fill="#08142a"/></g><circle cx="512.415" cy="275.915" r="39.415" fill="#0c1d3e"/><g transform="translate(555.85,240.51) scale(3.5405) rotate(0)"><path fill-rule="evenodd" clip-rule="evenodd" d="M10 20C15.5228 20 20 15.5228 20 10C20 4.47715 15.5228 0 10 0C4.47715 0 0 4.47715 0 10C0 15.5228 4.47715 20 10 20ZM10 17C13.866 17 17 13.866 17 10C17 6.13401 13.866 3 10 3C6.13401 3 3 6.13401 3 10C3 13.866 6.13401 17 10 17Z" fill="#768691"/></g><circle cx="827.755" cy="275.91499999999996" r="14.765" fill="#153067"/><circle cx="118.255" cy="354.755" r="14.765" fill="#1e4594"/><g transform="translate(175.44,333.11) scale(2.1645) rotate(0)"><path fill-rule="evenodd" clip-rule="evenodd" d="M10 20C15.5228 20 20 15.5228 20 10C20 4.47715 15.5228 0 10 0C4.47715 0 0 4.47715 0 10C0 15.5228 4.47715 20 10 20ZM10 17C13.866 17 17 13.866 17 10C17 6.13401 13.866 3 10 3C6.13401 3 3 6.13401 3 10C3 13.866 6.13401 17 10 17Z" fill="#687680"/></g><g transform="translate(319.35,319.35) scale(3.5405) rotate(0)"><path fill-rule="evenodd" clip-rule="evenodd" d="M10 20C15.5228 20 20 15.5228 20 10C20 4.47715 15.5228 0 10 0C4.47715 0 0 4.47715 0 10C0 15.5228 4.47715 20 10 20ZM10 17C13.866 17 17 13.866 17 10C17 6.13401 13.866 3 10 3C6.13401 3 3 6.13401 3 10C3 13.866 6.13401 17 10 17Z" fill="#1b3f88"/></g><g transform="translate(31.53,425.7) scale(0.7885) rotate(0)"><path fill-rule="evenodd" clip-rule="evenodd" d="M10 20C15.5228 20 20 15.5228 20 10C20 4.47715 15.5228 0 10 0C4.47715 0 0 4.47715 0 10C0 15.5228 4.47715 20 10 20ZM10 17C13.866 17 17 13.866 17 10C17 6.13401 13.866 3 10 3C6.13401 3 3 6.13401 3 10C3 13.866 6.13401 17 10 17Z" fill="#4c565d"/></g><circle cx="118.255" cy="433.585" r="14.765" fill="#3071f2"/><g transform="translate(319.35,398.18) scale(3.5405) rotate(0)"><path fill-rule="evenodd" clip-rule="evenodd" d="M10 20C15.5228 20 20 15.5228 20 10C20 4.47715 15.5228 0 10 0C4.47715 0 0 4.47715 0 10C0 15.5228 4.47715 20 10 20ZM10 17C13.866 17 17 13.866 17 10C17 6.13401 13.866 3 10 3C6.13401 3 3 6.13401 3 10C3 13.866 6.13401 17 10 17Z" fill="#0f234a"/></g><circle cx="433.58500000000004" cy="433.58500000000004" r="39.415" fill="#2454b5"/><circle cx="591.255" cy="433.58500000000004" r="35.405" fill="#193a7d"/></g></svg>